# xmcd
#
# Track frame offsets: 
#        150
#        21706
#        42094
#        65481
#        85914
#        109156
#        128534
#        150482
#
# Disc length: 2278 seconds
#
# Revision: 0
# Processed by: cddbd v1.5.2PL0 Copyright (c) Steve Scherf et al.
# Submitted via: ExactAudioCopy v1.2
#
DISCID=6108e408
DTITLE=John Judd - Blues Backing Tracks: Key of E Major
DYEAR=2018
DGENRE=Blues
TTITLE0=E Shuffle Backing Track
TTITLE1=E Fast Straight Backing Track
TTITLE2=E Shuffle Two Backing Track
TTITLE3=E Fast Shuffle Backing Track
TTITLE4=E Super Slow Backing Track
TTITLE5=E Latin Backing Track
TTITLE6=E Medium Straight Backing Track
TTITLE7=E Medium Shuffle Backing Track
EXTD=
EXTT0=
EXTT1=
EXTT2=
EXTT3=
EXTT4=
EXTT5=
EXTT6=
EXTT7=
PLAYORDER=
